<svg xmlns="http://www.w3.org/2000/svg" viewBox="0 0 1593 695" preserveAspectRatio="xMidYMid" width="1593" height="695" xmlns:xlink="http://www.w3.org/1999/xlink" style="shape-rendering:auto;display:block;background-position-x:0%;background-position-y:0%;background-size:auto;background-origin:padding-box;background-clip:border-box;background:scroll rgb(255, 255, 255) none  repeat;width:1593px;height:695px;;animation:none"><g><linearGradient y2="0" y1="0" x2="1" x1="0" id="lg-o578w6yh81n"><stop offset="0" stop-color="#00aeef"></stop>

  
<stop offset="1" stop-color="#00395d"></stop></linearGradient>
<path opacity="0.4" fill="url(#lg-o578w6yh81n)" d="M 0 0 L 0 486.52 Q 159.3 467.22 318.6 447.21 T 637.2 284.59 T 955.8 255.74 T 1274.4 378.37 T 1593 272.7 L 1593 0 Z" style="fill:url('#lg-o578w6yh81n');opacity:0.4;;animation:none"></path>
<path opacity="0.4" fill="url(#lg-o578w6yh81n)" d="M 0 0 L 0 418.208 Q 159.3 404.659 318.6 379.835 T 637.2 314.986 T 955.8 225.2 T 1274.4 147.857 T 1593 180.027 L 1593 0 Z" style="fill:url('#lg-o578w6yh81n');opacity:0.4;;animation:none"></path>
<path opacity="0.4" fill="url(#lg-o578w6yh81n)" d="M 0 0 L 0 439.239 Q 159.3 539.175 318.6 514.954 T 637.2 255.004 T 955.8 344.753 T 1274.4 235.347 T 1593 178.696 L 1593 0 Z" style="fill:url('#lg-o578w6yh81n');opacity:0.4;;animation:none"></path>
<path opacity="0.4" fill="url(#lg-o578w6yh81n)" d="M 0 0 L 0 496.327 Q 159.3 387.151 318.6 362.43 T 637.2 427.612 T 955.8 288.61 T 1274.4 374.477 T 1593 266.67 L 1593 0 Z" style="fill:url('#lg-o578w6yh81n');opacity:0.4;;animation:none"></path>
<path opacity="0.4" fill="url(#lg-o578w6yh81n)" d="M 0 0 L 0 538.596 Q 159.3 418.234 318.6 396.886 T 637.2 306.864 T 955.8 357.149 T 1274.4 141.088 T 1593 82.9272 L 1593 0 Z" style="fill:url('#lg-o578w6yh81n');opacity:0.4;;animation:none"></path>
<g></g></g><!-- [ldio] generated by https://loading.io --></svg>