<svg xmlns="http://www.w3.org/2000/svg" viewBox="0 0 1536 695" preserveAspectRatio="xMidYMid" width="1536" height="695" xmlns:xlink="http://www.w3.org/1999/xlink" style="shape-rendering:auto;display:block;background-position-x:0%;background-position-y:0%;background-size:auto;background-origin:padding-box;background-clip:border-box;background:scroll rgb(255, 255, 255) none  repeat;width:1536px;height:695px;;animation:none"><g><linearGradient y2="0" y1="0" x2="1" x1="0" id="lg-6txvib78hzj"><stop offset="0" stop-color="#ff00ff"></stop>

  
<stop offset="1" stop-color="#00ffff"></stop></linearGradient>
<path opacity="0.4" fill="url(#lg-6txvib78hzj)" d="M 0 0 L 0 421.46 Q 153.6 417.74 307.2 384.56 T 614.4 423.63 T 921.6 348.2 T 1228.8 319.9 T 1536 213.64 L 1536 0 Z" style="fill:url('#lg-6txvib78hzj');opacity:0.4;;animation:none"></path>
<path opacity="0.4" fill="url(#lg-6txvib78hzj)" d="M 0 0 L 0 437.021 Q 153.6 399.763 307.2 375.619 T 614.4 319.041 T 921.6 320.158 T 1228.8 251.6 T 1536 220.853 L 1536 0 Z" style="fill:url('#lg-6txvib78hzj');opacity:0.4;;animation:none"></path>
<path opacity="0.4" fill="url(#lg-6txvib78hzj)" d="M 0 0 L 0 416.67 Q 153.6 462.433 307.2 438.415 T 614.4 362.087 T 921.6 312.048 T 1228.8 305.383 T 1536 168.436 L 1536 0 Z" style="fill:url('#lg-6txvib78hzj');opacity:0.4;;animation:none"></path>
<path opacity="0.4" fill="url(#lg-6txvib78hzj)" d="M 0 0 L 0 493.562 Q 153.6 431.068 307.2 404.803 T 614.4 429.367 T 921.6 356.342 T 1228.8 270.477 T 1536 208.682 L 1536 0 Z" style="fill:url('#lg-6txvib78hzj');opacity:0.4;;animation:none"></path>
<path opacity="0.4" fill="url(#lg-6txvib78hzj)" d="M 0 0 L 0 423.532 Q 153.6 474.868 307.2 442.031 T 614.4 307.119 T 921.6 261.995 T 1228.8 315.434 T 1536 204.623 L 1536 0 Z" style="fill:url('#lg-6txvib78hzj');opacity:0.4;;animation:none"></path>
<g></g></g><!-- [ldio] generated by https://loading.io --></svg>