				<svg
					width="100%"
					height="100%"
					id="svg"
					viewBox="0 0 1440 600"
					preserveAspectRatio="none"
					xmlns="http://www.w3.org/2000/svg"
					className="transition duration-300 ease-in-out delay-150"
				>
					<defs>
						<linearGradient id="gradient" x1="0%" y1="50%" x2="100%" y2="50%">
							<stop offset="5%" stop-color="#0693e3"></stop>
							<stop offset="95%" stop-color="#8ED1FC"></stop>
						</linearGradient>
					</defs>
					<path
						d="M 0,600 L 0,150 C 101.77033492822966,100.26794258373205 203.54066985645932,50.5358851674641 302,75 C 400.4593301435407,99.4641148325359 495.6076555023925,198.12440191387563 582,224 C 668.3923444976075,249.87559808612437 746.0287081339712,202.96650717703352 849,189 C 951.9712918660288,175.03349282296648 1080.2775119617227,194.0095693779904 1183,193 C 1285.7224880382773,191.9904306220096 1362.8612440191387,170.9952153110048 1440,150 L 1440,600 L 0,600 Z"
						stroke="none"
						stroke-width="0"
						fill="url(#gradient)"
						fill-opacity="0.53"
					></path>
					<defs>
						<linearGradient id="gradient" x1="0%" y1="50%" x2="100%" y2="50%">
							<stop offset="5%" stop-color="#0693e3"></stop>
							<stop offset="95%" stop-color="#8ED1FC"></stop>
						</linearGradient>
					</defs>
					<path
						d="M 0,600 L 0,350 C 105.77990430622009,342.8038277511962 211.55980861244018,335.60765550239233 313,339 C 414.4401913875598,342.39234449760767 511.5406698564593,356.3732057416268 587,337 C 662.4593301435407,317.6267942583732 716.2775119617226,264.89952153110045 822,283 C 927.7224880382774,301.10047846889955 1085.3492822966507,390.0287081339713 1197,413 C 1308.6507177033493,435.9712918660287 1374.3253588516745,392.9856459330143 1440,350 L 1440,600 L 0,600 Z"
						stroke="none"
						stroke-width="0"
						fill="url(#gradient)"
						fill-opacity="1"
						className="transition-all duration-300 ease-in-out delay-150 path-1"
					></path>
				</svg>